<svg width="50" height="50" viewBox="0 0 50 50" fill="none" xmlns="http://www.w3.org/2000/svg">
<path d="M28.8852 15.5781C31.2644 14.5871 33.8706 14.2704 36.4179 14.6628C38.9653 15.0551 41.3553 16.1414 43.326 17.8025C45.2967 19.4636 46.7719 21.6353 47.5898 24.0794C48.4077 26.5236 48.5367 29.1458 47.9627 31.6584C48.8767 28.8013 49.1916 25.7864 48.8879 22.802C48.5842 19.8177 47.6683 16.9281 46.1975 14.3137C44.7267 11.6992 42.7325 9.41621 40.3396 7.60722C37.9467 5.79822 35.2065 4.50212 32.2901 3.79988C29.7865 3.44775 27.2343 3.77847 24.9032 4.7571C22.5721 5.73573 20.5486 7.32593 19.0467 9.35963C17.5447 11.3933 16.62 13.795 16.3704 16.3109C16.1207 18.8267 16.5553 21.3633 17.6282 23.6525C17.4663 23.3105 17.4393 22.9199 17.5526 22.5588C17.666 22.1977 17.9113 21.8927 18.2397 21.7045L28.6831 15.6717C28.7481 15.6356 28.8157 15.6043 28.8852 15.5781Z" fill="url(#paint0_linear)"/>
<path d="M34.8362 4.57675L34.6541 4.5116L34.8362 4.57675Z" fill="#F8F9FE"/>
<path d="M34.208 4.35457L34.4452 4.43476L34.208 4.35457Z" fill="#F8F9FE"/>
<path d="M33.7568 4.20251L34.0058 4.28271L33.7568 4.20251Z" fill="#F8F9FE"/>
<path d="M32.8397 3.93858L33.1204 4.01543L32.8397 3.93858Z" fill="#F8F9FE"/>
<path d="M33.2991 4.06723L33.5647 4.14575L33.2991 4.06723Z" fill="#F8F9FE"/>
<path d="M32.3752 3.82161L32.6743 3.89512L32.3752 3.82161Z" fill="#F8F9FE"/>
<path d="M36.9195 26.9922C37.0175 27.3172 37.0026 27.6658 36.8774 27.9813C36.7521 28.2967 36.5237 28.5605 36.2295 28.7297L25.7844 34.7642L25.731 34.7909C24.8509 35.4943 23.9144 36.1241 22.9309 36.6738C19.3591 38.6691 15.3577 39.7708 11.2679 39.8848C13.7452 42.5399 16.8462 44.5343 20.2896 45.6871C21.4807 46.0063 22.7086 46.1675 23.9417 46.1666C31.6719 46.1666 37.9386 39.9283 37.9386 32.2315C37.9422 30.4355 37.596 28.656 36.9195 26.9922Z" fill="url(#paint1_linear)"/>
<path d="M34.2999 14.4905C32.4408 14.4881 30.6 14.8568 28.8852 15.5748C29.223 15.44 29.5983 15.4322 29.9414 15.553C30.2846 15.6737 30.5723 15.9147 30.7513 16.2314L36.7841 26.6764C36.8427 26.7788 36.8893 26.8875 36.9228 27.0006C37.6005 28.664 37.9477 30.4436 37.9453 32.2398C37.9453 39.9366 31.6786 46.1749 23.9483 46.1749C22.7684 46.1753 21.5931 46.0277 20.45 45.7355C23.1798 46.6222 26.0577 46.9616 28.9189 46.7344C31.78 46.5072 34.5683 45.7178 37.124 44.4114C39.6796 43.1051 41.9525 41.3074 43.8123 39.1213C45.6722 36.9352 47.0826 34.4037 47.9626 31.6718C48.4357 29.6162 48.4394 27.4804 47.9733 25.4233C47.5072 23.3661 46.5834 21.4405 45.2705 19.7895C43.9577 18.1386 42.2896 16.8048 40.3902 15.8874C38.4909 14.97 36.4092 14.4925 34.2999 14.4905Z" fill="url(#paint2_linear)"/>
<path d="M28.8852 15.5781C31.2644 14.5871 33.8706 14.2704 36.4179 14.6628C38.9653 15.0551 41.3553 16.1414 43.326 17.8025C45.2967 19.4636 46.7719 21.6353 47.5898 24.0794C48.4077 26.5236 48.5367 29.1458 47.9627 31.6584C48.8767 28.8013 49.1916 25.7864 48.8879 22.802C48.5842 19.8177 47.6683 16.9281 46.1975 14.3137C44.7267 11.6992 42.7325 9.41621 40.3396 7.60722C37.9467 5.79822 35.2065 4.50212 32.2901 3.79988C29.7865 3.44775 27.2343 3.77847 24.9032 4.7571C22.5721 5.73573 20.5486 7.32593 19.0467 9.35963C17.5447 11.3933 16.62 13.795 16.3704 16.3109C16.1207 18.8267 16.5553 21.3633 17.6282 23.6525C17.4663 23.3105 17.4393 22.9199 17.5526 22.5588C17.666 22.1977 17.9113 21.8927 18.2397 21.7045L28.6831 15.6717C28.7481 15.6356 28.8157 15.6043 28.8852 15.5781Z" fill="url(#paint3_linear)"/>
<path d="M34.2999 14.4905C32.4408 14.4881 30.6 14.8568 28.8852 15.5748C29.223 15.44 29.5983 15.4322 29.9414 15.553C30.2846 15.6737 30.5723 15.9147 30.7513 16.2314L36.7841 26.6764C36.8427 26.7788 36.8893 26.8875 36.9228 27.0006C37.6005 28.664 37.9477 30.4436 37.9453 32.2398C37.9453 39.9366 31.6786 46.1749 23.9483 46.1749C22.7684 46.1753 21.5931 46.0277 20.45 45.7355C23.1798 46.6222 26.0577 46.9616 28.9189 46.7344C31.78 46.5072 34.5683 45.7178 37.124 44.4114C39.6796 43.1051 41.9525 41.3074 43.8123 39.1213C45.6722 36.9352 47.0826 34.4037 47.9626 31.6718C48.4357 29.6162 48.4394 27.4804 47.9733 25.4233C47.5072 23.3661 46.5834 21.4405 45.2705 19.7895C43.9577 18.1386 42.2896 16.8048 40.3902 15.8874C38.4909 14.97 36.4092 14.4925 34.2999 14.4905Z" fill="url(#paint4_linear)"/>
<path d="M17.6282 23.6525L17.4812 23.3485L17.3024 22.9809C17.2406 22.8322 17.1704 22.6618 17.0902 22.4714C17.01 22.2809 16.9382 22.062 16.8547 21.8265C16.7711 21.5909 16.6976 21.3253 16.6174 21.053C16.5372 20.7806 16.4754 20.4732 16.3986 20.1558C16.3601 19.9988 16.3418 19.8317 16.3117 19.663C16.2816 19.4942 16.2499 19.3288 16.2365 19.1451C16.2231 18.9613 16.1981 18.7859 16.1797 18.6004C16.1613 18.415 16.158 18.2262 16.1446 18.0341C16.1446 17.9372 16.1363 17.8403 16.1313 17.7417C16.1262 17.6431 16.1313 17.5445 16.1313 17.4443C16.1313 17.2472 16.1313 17.05 16.1446 16.8429C16.1772 15.9796 16.2953 15.1217 16.4971 14.2817C16.7075 13.3815 17.0086 12.5049 17.396 11.6654C18.1948 9.92472 19.3456 8.36837 20.7757 7.09447C21.4647 6.47836 22.2136 5.93268 23.0111 5.46556C23.7534 5.02667 24.5368 4.66128 25.35 4.37461C26.0766 4.11791 26.8232 3.92177 27.5821 3.7882C28.2221 3.67775 28.8692 3.61299 29.5184 3.59441C29.8074 3.59441 30.0781 3.59441 30.3287 3.59441L31.012 3.63784L31.3043 3.65789C31.3962 3.66792 31.4814 3.68295 31.5616 3.69298L31.9659 3.75145L32.3001 3.80157L31.9659 3.77985L31.5616 3.75312L31.3043 3.73808H31.012H30.332C30.0847 3.75312 29.8174 3.76147 29.5317 3.78653C29.2461 3.81159 28.9453 3.84 28.6312 3.8968C28.4725 3.92353 28.3105 3.94191 28.1451 3.97365L27.6439 4.07556C26.9097 4.24014 26.1888 4.45905 25.487 4.73047C24.7067 5.0359 23.9552 5.41051 23.2417 5.84982C22.4802 6.31819 21.7642 6.85683 21.1032 7.45868C20.4197 8.07728 19.8006 8.76354 19.2554 9.50693C18.7045 10.2471 18.2293 11.0408 17.837 11.8759C17.0951 13.4432 16.6482 15.1337 16.5189 16.8629C16.4988 17.06 16.5005 17.2622 16.4888 17.4577C16.4888 17.5546 16.4788 17.6598 16.4888 17.7467C16.4988 17.8336 16.4888 17.9372 16.4888 18.0307C16.4888 18.2195 16.4888 18.4049 16.4988 18.587C16.5088 18.7691 16.5205 18.9462 16.5305 19.1217C16.5406 19.2971 16.5673 19.4658 16.584 19.6329C16.6007 19.8 16.6174 19.967 16.6458 20.1191C16.7026 20.4331 16.7377 20.7372 16.8129 21.0129C16.8881 21.2885 16.9282 21.5542 17.0017 21.7914C17.0752 22.0286 17.1253 22.2492 17.1971 22.443L17.3642 22.9625C17.4227 23.1112 17.4711 23.2382 17.5129 23.3418C17.5864 23.5423 17.6282 23.6525 17.6282 23.6525Z" fill="url(#paint5_linear)"/>
<path d="M28.8851 15.5748L29.2026 15.4361C29.4064 15.3409 29.7138 15.219 30.1131 15.0769C30.3136 15.0101 30.5374 14.9416 30.7813 14.8648C31.0253 14.7879 31.2926 14.7278 31.5732 14.6609C32.2197 14.5166 32.8758 14.4189 33.5363 14.3686C33.7184 14.3552 33.9038 14.3502 34.0926 14.3402H34.2363C34.2614 14.3402 34.2797 14.3402 34.3115 14.3402H34.6724C34.8661 14.3402 35.0633 14.3402 35.2688 14.3569C35.4743 14.3736 35.6814 14.3753 35.8886 14.402C36.7651 14.4833 37.6314 14.6511 38.4748 14.9032C39.3829 15.1667 40.2613 15.5233 41.0961 15.9674C41.9536 16.43 42.7614 16.9791 43.5069 17.6064C44.2482 18.2377 44.9238 18.9424 45.5234 19.7097C46.6443 21.1511 47.4678 22.8008 47.9459 24.563C48.1559 25.3211 48.2963 26.0967 48.3652 26.8803C48.4293 27.5393 48.441 28.2024 48.4003 28.8634C48.3919 29.0087 48.3836 29.1507 48.3769 29.2877C48.3702 29.4247 48.3468 29.5567 48.3335 29.6837C48.3051 29.9376 48.28 30.1715 48.2382 30.3787C48.1965 30.5858 48.1714 30.7729 48.138 30.9333C48.1046 31.0937 48.0662 31.2274 48.0411 31.3376L47.9592 31.6718C47.9592 31.6718 47.9776 31.5531 48.0144 31.3376C48.0311 31.2257 48.0528 31.0887 48.0795 30.9283C48.1062 30.7679 48.1179 30.5791 48.1413 30.3703C48.1647 30.1615 48.1814 29.9309 48.1948 29.6803C48.1948 29.5533 48.2115 29.4247 48.2148 29.2877V28.8634C48.2129 28.2123 48.1677 27.5621 48.0795 26.917C47.9766 26.1564 47.8118 25.4054 47.5867 24.6716C47.3346 23.8558 47.0115 23.0637 46.621 22.3043C46.2 21.4956 45.7033 20.7287 45.1375 20.0138C44.5543 19.2759 43.8977 18.5992 43.1778 17.9939C42.4622 17.3839 41.6857 16.8492 40.8605 16.3985C40.0614 15.9608 39.2222 15.6005 38.3545 15.3225C37.5378 15.0627 36.699 14.8787 35.8485 14.7729C35.6464 14.7395 35.4475 14.7328 35.2504 14.7111C35.0533 14.6894 34.8578 14.681 34.664 14.6726L34.375 14.6593H34.3031H34.0976H33.5513C32.9011 14.6839 32.2528 14.747 31.61 14.8481C31.3226 14.8965 31.0553 14.955 30.8081 15.0034C30.5608 15.0519 30.3369 15.1187 30.1398 15.1705L29.6035 15.3376C29.4481 15.3827 29.3178 15.4345 29.2109 15.4696L28.8851 15.5748Z" fill="url(#paint6_linear)"/>
<path d="M36.9194 26.9922L37.0547 27.313C37.1483 27.5202 37.2686 27.8326 37.4089 28.2352C37.4691 28.439 37.5426 28.6629 37.6111 28.9035C37.6428 29.0288 37.6762 29.1574 37.7096 29.2928C37.7431 29.4281 37.7781 29.5667 37.8065 29.7138C37.9471 30.3662 38.0359 31.0288 38.0722 31.6952C38.0805 31.879 38.0872 32.0677 38.0956 32.2599C38.1039 32.452 38.0956 32.6425 38.0956 32.8379C38.0822 33.2322 38.0588 33.6499 38.0054 34.0659C37.9061 34.9471 37.7192 35.8163 37.4473 36.6604C37.1576 37.5658 36.7746 38.4387 36.3046 39.265C35.816 40.1166 35.2417 40.916 34.5905 41.6507C33.9374 42.3825 33.2095 43.0438 32.4186 43.6238C30.9294 44.707 29.2409 45.4854 27.45 45.9143C26.6784 46.0945 25.8923 46.2064 25.1011 46.2484C24.7352 46.2752 24.3827 46.2752 24.0485 46.2735C23.7144 46.2718 23.402 46.2367 23.1046 46.22C22.593 46.1743 22.0843 46.1001 21.5809 45.9978C21.2573 45.9381 20.9371 45.8606 20.622 45.7656L20.2878 45.6737L20.622 45.7389C20.8458 45.7823 21.17 45.8525 21.591 45.9059C22.0929 45.9764 22.5981 46.0204 23.1046 46.0379C23.397 46.0379 23.7194 46.0463 24.0402 46.0379L24.5414 46.0129C24.7084 46.0129 24.8889 45.9811 25.0693 45.9678C27.624 45.7116 30.0613 44.767 32.1212 43.2345C33.6435 42.0963 34.9217 40.6641 35.8803 39.0228C36.3431 38.227 36.7264 37.3877 37.0247 36.5168C37.3023 35.7015 37.5053 34.8627 37.6311 34.0107C37.6979 33.6031 37.7263 33.2105 37.7564 32.8229C37.7648 32.6274 37.7748 32.4353 37.7831 32.2465V31.6985C37.7831 31.5181 37.7698 31.3427 37.7631 31.1706C37.7564 30.9985 37.7464 30.8365 37.728 30.6694C37.7096 30.5023 37.6979 30.3453 37.6846 30.1899C37.6712 30.0345 37.6411 29.8858 37.6194 29.7422C37.5977 29.5985 37.5777 29.4548 37.5493 29.3212C37.5209 29.1875 37.4991 29.0572 37.4741 28.9319C37.4189 28.683 37.3605 28.4574 37.307 28.2519C37.1884 27.8459 37.1015 27.5252 37.0213 27.3113L36.9194 26.9922Z" fill="url(#paint7_linear)"/>
<path d="M23.7645 34.2747C23.7528 34.253 23.7378 34.2346 23.7261 34.2129L17.6916 23.7661C17.6699 23.7294 17.6515 23.691 17.6331 23.6525C16.6311 21.5145 16.1846 19.1583 16.3351 16.8019C16.4857 14.4456 17.2283 12.1653 18.4943 10.1722C19.7603 8.17907 21.5087 6.53762 23.5776 5.3998C25.6465 4.26198 27.9691 3.66458 30.3303 3.6629C30.9836 3.66303 31.6362 3.70824 32.2833 3.79822C28.0316 2.77861 23.5716 3.06085 19.4824 4.6083C15.3932 6.15576 11.8638 8.89693 9.3523 12.4759C6.84085 16.0548 5.46345 20.3062 5.39898 24.6779C5.3345 29.0496 6.58593 33.3398 8.99075 36.9912C13.2627 37.8432 18.9363 36.8943 23.7645 34.2747Z" fill="url(#paint8_linear)"/>
<path d="M23.3185 33.3474C16.9115 37.0831 8.66669 37.5759 4.90266 34.4417C2.34987 32.3283 2.51527 29.0956 4.88094 26.0566C0.630744 29.5751 -0.31987 33.9706 2.98473 36.6988C6.92418 39.955 15.4112 39.6041 21.9435 35.9253C25.4637 33.9422 27.694 31.3944 28.389 28.9586C27.2613 30.5223 25.5489 32.046 23.3185 33.3474Z" fill="url(#paint9_linear)"/>
<defs>
<linearGradient id="paint0_linear" x1="19.3607" y1="11.5435" x2="28.4392" y2="14.9399" gradientUnits="userSpaceOnUse">
<stop offset="0.01" stop-color="#3DCF98"/>
<stop offset="1" stop-color="#41D09A"/>
</linearGradient>
<linearGradient id="paint1_linear" x1="12.3606" y1="41.2885" x2="36.6996" y2="33.4886" gradientUnits="userSpaceOnUse">
<stop offset="0.01" stop-color="#6DDDB2"/>
<stop offset="1" stop-color="#1AC584"/>
</linearGradient>
<linearGradient id="paint2_linear" x1="5957.36" y1="3391.78" x2="5622.13" y2="5608.57" gradientUnits="userSpaceOnUse">
<stop offset="0.01" stop-color="#42D19B"/>
<stop offset="1" stop-color="#4FD5A2"/>
</linearGradient>
<linearGradient id="paint3_linear" x1="48.1966" y1="20.7392" x2="19.9622" y2="10.0468" gradientUnits="userSpaceOnUse">
<stop offset="0.01" stop-color="#6DDDB2"/>
<stop offset="1" stop-color="#1AC584"/>
</linearGradient>
<linearGradient id="paint4_linear" x1="35.3324" y1="44.5463" x2="30.7382" y2="16.0203" gradientUnits="userSpaceOnUse">
<stop offset="0.01" stop-color="#6DDDB2"/>
<stop offset="1" stop-color="#1AC584"/>
</linearGradient>
<linearGradient id="paint5_linear" x1="11.9429" y1="15.393" x2="30.9051" y2="16.646" gradientUnits="userSpaceOnUse">
<stop offset="0.01" stop-color="#39D89B"/>
<stop offset="1" stop-color="#1F8F65"/>
</linearGradient>
<linearGradient id="paint6_linear" x1="23.8272" y1="24.535" x2="46.6437" y2="26.6433" gradientUnits="userSpaceOnUse">
<stop offset="0.01" stop-color="#39D89B"/>
<stop offset="1" stop-color="#1F8F65"/>
</linearGradient>
<linearGradient id="paint7_linear" x1="15.6771" y1="38.3342" x2="36.5344" y2="39.9134" gradientUnits="userSpaceOnUse">
<stop offset="0.01" stop-color="#39D89B"/>
<stop offset="1" stop-color="#1F8F65"/>
</linearGradient>
<linearGradient id="paint8_linear" x1="19.2103" y1="6.7055" x2="13.692" y2="35.4488" gradientUnits="userSpaceOnUse">
<stop offset="0.01" stop-color="#6DDDB2"/>
<stop offset="1" stop-color="#1AC584"/>
</linearGradient>
<linearGradient id="paint9_linear" x1="28.0649" y1="30.5126" x2="1.26974" y2="25.4705" gradientUnits="userSpaceOnUse">
<stop offset="0.01" stop-color="#6DDDB2"/>
<stop offset="1" stop-color="#1AC584"/>
</linearGradient>
</defs>
</svg>
