<svg width="24" height="24" viewBox="0 0 24 24" fill="none" xmlns="http://www.w3.org/2000/svg">
<path fill-rule="evenodd" clip-rule="evenodd" d="M4.75 3C3.7835 3 3 3.7835 3 4.75V10.8302C3 11.7967 3.7835 12.5802 4.75 12.5802H9.03464C10.0011 12.5802 10.7846 11.7967 10.7846 10.8302V4.75C10.7846 3.7835 10.0011 3 9.03464 3H4.75ZM4.5 4.75C4.5 4.61193 4.61193 4.5 4.75 4.5H9.03464C9.17271 4.5 9.28464 4.61193 9.28464 4.75V10.8302C9.28464 10.9683 9.17271 11.0802 9.03464 11.0802H4.75C4.61193 11.0802 4.5 10.9683 4.5 10.8302V4.75ZM14.6259 11.0802C13.6594 11.0802 12.8759 11.8637 12.8759 12.8302V18.9105C12.8759 19.877 13.6594 20.6605 14.6259 20.6605H18.9105C19.877 20.6605 20.6605 19.877 20.6605 18.9105V12.8302C20.6605 11.8637 19.877 11.0802 18.9105 11.0802H14.6259ZM14.3759 12.8302C14.3759 12.6922 14.4878 12.5802 14.6259 12.5802H18.9105C19.0486 12.5802 19.1605 12.6922 19.1605 12.8302V18.9105C19.1605 19.0486 19.0486 19.1605 18.9105 19.1605H14.6259C14.4878 19.1605 14.3759 19.0486 14.3759 18.9105V12.8302ZM12.8759 4.75C12.8759 3.7835 13.6594 3 14.6259 3H18.9105C19.877 3 20.6605 3.7835 20.6605 4.75V7.23903C20.6605 8.20553 19.877 8.98903 18.9105 8.98903H14.6259C13.6594 8.98903 12.8759 8.20553 12.8759 7.23903V4.75ZM14.6259 4.5C14.4878 4.5 14.3759 4.61193 14.3759 4.75V7.23903C14.3759 7.3771 14.4878 7.48903 14.6259 7.48903H18.9105C19.0486 7.48903 19.1605 7.3771 19.1605 7.23903V4.75C19.1605 4.61193 19.0486 4.5 18.9105 4.5H14.6259ZM4.75 14.6715C3.7835 14.6715 3 15.455 3 16.4215V18.9105C3 19.877 3.7835 20.6605 4.75 20.6605H9.03464C10.0011 20.6605 10.7846 19.877 10.7846 18.9105V16.4215C10.7846 15.455 10.0011 14.6715 9.03464 14.6715H4.75ZM4.5 16.4215C4.5 16.2834 4.61193 16.1715 4.75 16.1715H9.03464C9.17271 16.1715 9.28464 16.2834 9.28464 16.4215V18.9105C9.28464 19.0485 9.17271 19.1605 9.03464 19.1605H4.75C4.61193 19.1605 4.5 19.0485 4.5 18.9105V16.4215Z" fill="#52BD94"/>
</svg>
