<svg width="24" height="24" viewBox="0 0 24 24" fill="none" xmlns="http://www.w3.org/2000/svg">
<path fill-rule="evenodd" clip-rule="evenodd" d="M10.2714 3H10.2393H10.2393C9.42649 2.99999 8.77088 2.99999 8.23998 3.04336C7.69334 3.08803 7.2132 3.18239 6.76898 3.40873C6.06337 3.76825 5.48969 4.34193 5.13017 5.04754C5.02018 5.2634 4.94136 5.48775 4.88426 5.72408C4.53885 5.73091 4.24573 5.75406 3.98136 5.83102C3.07848 6.09387 2.3725 6.79985 2.10965 7.70273C1.99927 8.08189 1.99958 8.52017 1.99999 9.08706L2.00004 9.19281V14.6356L1.99999 14.7414C1.99958 15.3082 1.99927 15.7465 2.10965 16.1257C2.3725 17.0286 3.07848 17.7345 3.98136 17.9974C4.24573 18.0744 4.53885 18.0975 4.88426 18.1043C4.94136 18.3407 5.02018 18.565 5.13017 18.7809C5.48969 19.4865 6.06337 20.0601 6.76898 20.4197C7.2132 20.646 7.69334 20.7404 8.23998 20.785C8.77088 20.8284 9.42649 20.8284 10.2393 20.8284H10.2714H13.3713H13.4034C14.2163 20.8284 14.8719 20.8284 15.4028 20.785C15.9494 20.7404 16.4296 20.646 16.8738 20.4197C17.5794 20.0601 18.1531 19.4865 18.5126 18.7809C18.6226 18.565 18.7014 18.3407 18.7585 18.1043C19.1039 18.0975 19.397 18.0744 19.6614 17.9974C20.5643 17.7345 21.2703 17.0286 21.5331 16.1257C21.6435 15.7465 21.6432 15.3082 21.6428 14.7414L21.6428 14.6356V9.19281L21.6428 9.08706C21.6432 8.52017 21.6435 8.08189 21.5331 7.70273C21.2703 6.79985 20.5643 6.09387 19.6614 5.83102C19.397 5.75405 19.1039 5.73091 18.7585 5.72408C18.7014 5.48775 18.6226 5.2634 18.5126 5.04754C18.1531 4.34193 17.5794 3.76825 16.8738 3.40873C16.4296 3.18239 15.9494 3.08803 15.4028 3.04336C14.8719 2.99999 14.2163 2.99999 13.4034 3H13.4034H13.3713H10.2714ZM18.9122 7.22997C18.9213 7.60842 18.9213 8.03546 18.9213 8.51788V8.55V15.2784V15.3105C18.9213 15.7929 18.9213 16.22 18.9122 16.5984C19.0786 16.5914 19.1678 16.5788 19.2421 16.5572C19.6526 16.4377 19.9734 16.1168 20.0929 15.7064C20.1352 15.5611 20.1428 15.3591 20.1428 14.6356V9.19281C20.1428 8.46934 20.1352 8.26727 20.0929 8.12201C19.9734 7.71161 19.6526 7.39071 19.2421 7.27123C19.1678 7.24959 19.0786 7.23705 18.9122 7.22997ZM4.40064 7.27123C4.47497 7.24959 4.56417 7.23705 4.7305 7.22997C4.72144 7.60842 4.72144 8.03545 4.72144 8.51785V8.51789L4.72144 8.55V15.2784L4.72144 15.3105V15.3105C4.72144 15.793 4.72144 16.22 4.7305 16.5984C4.56417 16.5914 4.47497 16.5788 4.40064 16.5572C3.99024 16.4377 3.66934 16.1168 3.54986 15.7064C3.50757 15.5611 3.50004 15.3591 3.50004 14.6356V9.19281C3.50004 8.46934 3.50757 8.26727 3.54986 8.12201C3.66934 7.71161 3.99024 7.39071 4.40064 7.27123ZM7.44997 4.74524C7.64748 4.6446 7.90825 4.57547 8.36212 4.53838C8.82475 4.50058 9.41899 4.5 10.2714 4.5H13.3713C14.2238 4.5 14.818 4.50058 15.2806 4.53838C15.7345 4.57547 15.9953 4.6446 16.1928 4.74524C16.6161 4.96095 16.9604 5.30516 17.1761 5.72852C17.2767 5.92604 17.3458 6.1868 17.3829 6.64068C17.4207 7.10331 17.4213 7.69755 17.4213 8.55V15.2784C17.4213 16.1309 17.4207 16.7251 17.3829 17.1877C17.3458 17.6416 17.2767 17.9024 17.1761 18.0999C16.9604 18.5232 16.6161 18.8674 16.1928 19.0832C15.9953 19.1838 15.7345 19.2529 15.2806 19.29C14.818 19.3278 14.2238 19.3284 13.3713 19.3284H10.2714C9.41899 19.3284 8.82475 19.3278 8.36212 19.29C7.90825 19.2529 7.64748 19.1838 7.44997 19.0832C7.0266 18.8674 6.68239 18.5232 6.46668 18.0999C6.36604 17.9024 6.29691 17.6416 6.25983 17.1877C6.22203 16.7251 6.22144 16.1308 6.22144 15.2784V8.55C6.22144 7.69755 6.22203 7.10331 6.25983 6.64068C6.29691 6.1868 6.36604 5.92604 6.46668 5.72852C6.68239 5.30516 7.0266 4.96095 7.44997 4.74524ZM9.09999 6.62854C8.68577 6.62854 8.34999 6.96433 8.34999 7.37854C8.34999 7.79276 8.68577 8.12854 9.09999 8.12854H14.5428C14.957 8.12854 15.2928 7.79276 15.2928 7.37854C15.2928 6.96433 14.957 6.62854 14.5428 6.62854H9.09999ZM8.34999 11.0071C8.34999 10.5929 8.68577 10.2571 9.09999 10.2571H12.7285C13.1427 10.2571 13.4785 10.5929 13.4785 11.0071C13.4785 11.4213 13.1427 11.7571 12.7285 11.7571H9.09999C8.68577 11.7571 8.34999 11.4213 8.34999 11.0071ZM9.09999 13.8856C8.68577 13.8856 8.34999 14.2214 8.34999 14.6356C8.34999 15.0498 8.68577 15.3856 9.09999 15.3856H10.9143C11.3285 15.3856 11.6643 15.0498 11.6643 14.6356C11.6643 14.2214 11.3285 13.8856 10.9143 13.8856H9.09999Z" fill="#52BD94"/>
</svg>
