<svg width="64" height="64" viewBox="0 0 64 64" fill="none" xmlns="http://www.w3.org/2000/svg">
<rect width="64" height="64" rx="32" fill="#F7FFF8"/>
<path fill-rule="evenodd" clip-rule="evenodd" d="M42 32C42 31.448 42.448 31 43 31C43.552 31 44 31.448 44 32C44 38.617 38.617 44 32 44C25.383 44 20 38.617 20 32C20 25.383 25.383 20 32 20C35.221 20 38.2455 21.259 40.5155 23.545C40.9045 23.937 40.9025 24.57 40.5105 24.959C40.1185 25.3485 39.485 25.3465 39.0965 24.954C37.2045 23.049 34.6845 22 32 22C26.486 22 22 26.486 22 32C22 37.514 26.486 42 32 42C37.514 42 42 37.514 42 32ZM35.793 28.793C36.183 28.4025 36.817 28.4025 37.207 28.793C37.5975 29.1835 37.5975 29.8165 37.207 30.207L32.207 35.207C32.012 35.4025 31.756 35.5 31.5 35.5C31.244 35.5 30.988 35.4025 30.793 35.207L28.293 32.707C27.9025 32.3165 27.9025 31.6835 28.293 31.293C28.683 30.9025 29.317 30.9025 29.707 31.293L31.5 33.0855L35.793 28.793Z" fill="black"/>
<path fill-rule="evenodd" clip-rule="evenodd" d="M42 32C42 31.448 42.448 31 43 31C43.552 31 44 31.448 44 32C44 38.617 38.617 44 32 44C25.383 44 20 38.617 20 32C20 25.383 25.383 20 32 20C35.221 20 38.2455 21.259 40.5155 23.545C40.9045 23.937 40.9025 24.57 40.5105 24.959C40.1185 25.3485 39.485 25.3465 39.0965 24.954C37.2045 23.049 34.6845 22 32 22C26.486 22 22 26.486 22 32C22 37.514 26.486 42 32 42C37.514 42 42 37.514 42 32ZM35.793 28.793C36.183 28.4025 36.817 28.4025 37.207 28.793C37.5975 29.1835 37.5975 29.8165 37.207 30.207L32.207 35.207C32.012 35.4025 31.756 35.5 31.5 35.5C31.244 35.5 30.988 35.4025 30.793 35.207L28.293 32.707C27.9025 32.3165 27.9025 31.6835 28.293 31.293C28.683 30.9025 29.317 30.9025 29.707 31.293L31.5 33.0855L35.793 28.793Z" fill="url(#paint0_linear)"/>
<defs>
<linearGradient id="paint0_linear" x1="32" y1="20" x2="32" y2="44" gradientUnits="userSpaceOnUse">
<stop stop-color="#38B73B"/>
<stop offset="1" stop-color="#58C25B"/>
</linearGradient>
</defs>
</svg>
