<svg width="64" height="64" viewBox="0 0 64 64" fill="none" xmlns="http://www.w3.org/2000/svg">
<rect width="64" height="64" rx="32" fill="#F6FAFE"/>
<path fill-rule="evenodd" clip-rule="evenodd" d="M31.4222 32.7073C31.4222 33.1906 31.8139 33.5823 32.2972 33.5823C32.7804 33.5823 33.1722 33.1906 33.1722 32.7073V23.1124L35.1906 25.1309C35.5324 25.4726 36.0864 25.4726 36.4281 25.1309C36.7698 24.7892 36.7698 24.2352 36.4281 23.8935L32.9159 20.3813C32.7518 20.2172 32.5292 20.125 32.2972 20.125C32.0651 20.125 31.8425 20.2172 31.6785 20.3813L28.1663 23.8935C27.8245 24.2352 27.8245 24.7892 28.1663 25.1309C28.508 25.4726 29.062 25.4726 29.4037 25.1309L31.4222 23.1124V32.7073ZM27.5405 27.1494L27.5879 27.1494H28.4921C28.9754 27.1494 29.3671 27.5411 29.3671 28.0244C29.3671 28.5076 28.9754 28.8994 28.4921 28.8994H27.5879C26.8679 28.8994 26.4017 28.9007 26.0475 28.9413C25.7157 28.9793 25.5736 29.0437 25.4771 29.1136C25.3807 29.1836 25.2753 29.2986 25.1361 29.6022C24.9874 29.9263 24.8413 30.369 24.6176 31.0533L23.5974 34.1738H25.504L25.54 34.1738C26.0183 34.1738 26.434 34.1737 26.7823 34.2053C27.1568 34.2393 27.514 34.3135 27.8656 34.4954C27.8892 34.5076 27.9126 34.5201 27.9358 34.533C28.2822 34.7246 28.5421 34.9807 28.778 35.2734C28.9976 35.5457 29.2281 35.8916 29.4934 36.2896L29.5134 36.3195C29.8043 36.756 29.9913 37.0349 30.1551 37.2382C30.308 37.4279 30.4023 37.5014 30.4819 37.5454C30.491 37.5504 30.5001 37.5553 30.5094 37.5601C30.5902 37.6019 30.7036 37.6396 30.9463 37.6616C31.2063 37.6852 31.5421 37.686 32.0666 37.686H32.5284C33.0529 37.686 33.3887 37.6852 33.6487 37.6616C33.8914 37.6396 34.0048 37.6019 34.0857 37.5601C34.0949 37.5553 34.104 37.5504 34.1131 37.5454C34.1928 37.5014 34.287 37.4279 34.4399 37.2382C34.6038 37.0349 34.7907 36.756 35.0817 36.3195L35.1016 36.2896C35.3669 35.8916 35.5975 35.5457 35.817 35.2734C36.0529 34.9807 36.3129 34.7246 36.6592 34.533C36.6825 34.5201 36.7059 34.5076 36.7295 34.4954C37.081 34.3135 37.4383 34.2393 37.8127 34.2053C38.1611 34.1737 38.5767 34.1738 39.0551 34.1738L39.091 34.1738H40.9966L39.9764 31.0533C39.7527 30.369 39.6066 29.9263 39.4579 29.6022C39.3187 29.2986 39.2133 29.1836 39.1169 29.1136C39.0204 29.0437 38.8783 28.9793 38.5465 28.9413C38.1923 28.9007 37.7261 28.8994 37.0061 28.8994H36.1019C35.6186 28.8994 35.2269 28.5076 35.2269 28.0244C35.2269 27.5411 35.6186 27.1494 36.1019 27.1494H37.0061L37.0535 27.1494C37.7128 27.1494 38.2801 27.1493 38.7458 27.2027C39.245 27.2599 39.7154 27.386 40.1442 27.6969C40.573 28.0079 40.839 28.4158 41.0485 28.8726C41.244 29.2986 41.4202 29.8378 41.625 30.4644L41.6398 30.5095L42.9103 34.3958L42.9177 34.4183L42.9547 34.5318C43.061 34.6766 43.1237 34.8554 43.1237 35.0488L43.1235 35.0672C43.1326 35.0986 43.1414 35.1294 43.1499 35.1603C43.4707 36.324 43.5507 37.541 43.385 38.7368C43.3564 38.9435 43.3178 39.1498 43.2519 39.5026L43.2475 39.526L43.2354 39.5908C43.1389 40.1082 43.075 40.4505 42.9763 40.7534C42.3944 42.5404 40.837 43.8338 38.9735 44.0777C38.6576 44.119 38.3094 44.119 37.7831 44.1189L37.7172 44.1189H26.8768L26.8109 44.1189C26.2846 44.119 25.9364 44.119 25.6205 44.0777C23.757 43.8338 22.1996 42.5404 21.6177 40.7534C21.519 40.4505 21.4551 40.1082 21.3586 39.5908L21.3465 39.526L21.3421 39.5027L21.3421 39.5027L21.3421 39.5027C21.2762 39.1498 21.2376 38.9436 21.209 38.7368C21.0433 37.541 21.1233 36.324 21.4441 35.1603C21.4529 35.1283 21.462 35.0964 21.4714 35.0639L21.4713 35.0488C21.4713 34.8565 21.5333 34.6787 21.6384 34.5343L21.6763 34.4184L21.6763 34.4184L21.6837 34.3958L22.9542 30.5095L22.9689 30.4645C23.1738 29.8379 23.35 29.2986 23.5455 28.8726C23.755 28.4158 24.021 28.0079 24.4498 27.6969C24.8786 27.386 25.349 27.2599 25.8482 27.2027C26.3139 27.1493 26.8812 27.1494 27.5405 27.1494H27.5405ZM22.9424 38.4966C22.8235 37.6384 22.8622 36.7665 23.0558 35.9238H25.504C26.0286 35.9238 26.3643 35.9246 26.6244 35.9482C26.867 35.9702 26.9805 36.0078 27.0613 36.0496C27.0705 36.0544 27.0797 36.0593 27.0887 36.0643C27.1684 36.1084 27.2626 36.1819 27.4155 36.3716C27.5794 36.5749 27.7663 36.8538 28.0573 37.2902L28.0772 37.3201L28.0772 37.3202L28.0772 37.3202C28.3426 37.7182 28.5731 38.064 28.7926 38.3364C29.0285 38.6291 29.2885 38.8852 29.6349 39.0768C29.6581 39.0896 29.6815 39.1021 29.7051 39.1143C30.0566 39.2963 30.4139 39.3705 30.7883 39.4044C31.1367 39.436 31.5523 39.436 32.0307 39.436H32.0666H32.5284H32.5644C33.0427 39.436 33.4583 39.436 33.8067 39.4044C34.1812 39.3705 34.5384 39.2963 34.89 39.1143C34.9135 39.1021 34.937 39.0896 34.9602 39.0768C35.3066 38.8852 35.5665 38.6291 35.8024 38.3364C36.022 38.064 36.2525 37.7182 36.5178 37.3201L36.5378 37.2902C36.8287 36.8538 37.0157 36.5749 37.1795 36.3716C37.3324 36.1819 37.4267 36.1084 37.5063 36.0643C37.5154 36.0593 37.5245 36.0544 37.5338 36.0496C37.6146 36.0078 37.728 35.9702 37.9707 35.9482C38.2307 35.9246 38.5665 35.9238 39.091 35.9238H41.5382C41.7318 36.7665 41.7705 37.6384 41.6516 38.4966C41.6292 38.6578 41.5988 38.822 41.5273 39.2046C41.4142 39.8098 41.371 40.0313 41.3123 40.2115C40.9393 41.3571 39.941 42.1861 38.7464 42.3425C38.5584 42.3671 38.3328 42.3689 37.7172 42.3689H26.8768C26.2612 42.3689 26.0356 42.3671 25.8476 42.3425C24.653 42.1861 23.6547 41.3571 23.2817 40.2115C23.223 40.0313 23.1797 39.8098 23.0667 39.2046C22.9952 38.822 22.9648 38.6578 22.9424 38.4966Z" fill="#151E28"/>
<path fill-rule="evenodd" clip-rule="evenodd" d="M31.4222 32.7073C31.4222 33.1906 31.8139 33.5823 32.2972 33.5823C32.7804 33.5823 33.1722 33.1906 33.1722 32.7073V23.1124L35.1906 25.1309C35.5324 25.4726 36.0864 25.4726 36.4281 25.1309C36.7698 24.7892 36.7698 24.2352 36.4281 23.8935L32.9159 20.3813C32.7518 20.2172 32.5292 20.125 32.2972 20.125C32.0651 20.125 31.8425 20.2172 31.6785 20.3813L28.1663 23.8935C27.8245 24.2352 27.8245 24.7892 28.1663 25.1309C28.508 25.4726 29.062 25.4726 29.4037 25.1309L31.4222 23.1124V32.7073ZM27.5405 27.1494L27.5879 27.1494H28.4921C28.9754 27.1494 29.3671 27.5411 29.3671 28.0244C29.3671 28.5076 28.9754 28.8994 28.4921 28.8994H27.5879C26.8679 28.8994 26.4017 28.9007 26.0475 28.9413C25.7157 28.9793 25.5736 29.0437 25.4771 29.1136C25.3807 29.1836 25.2753 29.2986 25.1361 29.6022C24.9874 29.9263 24.8413 30.369 24.6176 31.0533L23.5974 34.1738H25.504L25.54 34.1738C26.0183 34.1738 26.434 34.1737 26.7823 34.2053C27.1568 34.2393 27.514 34.3135 27.8656 34.4954C27.8892 34.5076 27.9126 34.5201 27.9358 34.533C28.2822 34.7246 28.5421 34.9807 28.778 35.2734C28.9976 35.5457 29.2281 35.8916 29.4934 36.2896L29.5134 36.3195C29.8043 36.756 29.9913 37.0349 30.1551 37.2382C30.308 37.4279 30.4023 37.5014 30.4819 37.5454C30.491 37.5504 30.5001 37.5553 30.5094 37.5601C30.5902 37.6019 30.7036 37.6396 30.9463 37.6616C31.2063 37.6852 31.5421 37.686 32.0666 37.686H32.5284C33.0529 37.686 33.3887 37.6852 33.6487 37.6616C33.8914 37.6396 34.0048 37.6019 34.0857 37.5601C34.0949 37.5553 34.104 37.5504 34.1131 37.5454C34.1928 37.5014 34.287 37.4279 34.4399 37.2382C34.6038 37.0349 34.7907 36.756 35.0817 36.3195L35.1016 36.2896C35.3669 35.8916 35.5975 35.5457 35.817 35.2734C36.0529 34.9807 36.3129 34.7246 36.6592 34.533C36.6825 34.5201 36.7059 34.5076 36.7295 34.4954C37.081 34.3135 37.4383 34.2393 37.8127 34.2053C38.1611 34.1737 38.5767 34.1738 39.0551 34.1738L39.091 34.1738H40.9966L39.9764 31.0533C39.7527 30.369 39.6066 29.9263 39.4579 29.6022C39.3187 29.2986 39.2133 29.1836 39.1169 29.1136C39.0204 29.0437 38.8783 28.9793 38.5465 28.9413C38.1923 28.9007 37.7261 28.8994 37.0061 28.8994H36.1019C35.6186 28.8994 35.2269 28.5076 35.2269 28.0244C35.2269 27.5411 35.6186 27.1494 36.1019 27.1494H37.0061L37.0535 27.1494C37.7128 27.1494 38.2801 27.1493 38.7458 27.2027C39.245 27.2599 39.7154 27.386 40.1442 27.6969C40.573 28.0079 40.839 28.4158 41.0485 28.8726C41.244 29.2986 41.4202 29.8378 41.625 30.4644L41.6398 30.5095L42.9103 34.3958L42.9177 34.4183L42.9547 34.5318C43.061 34.6766 43.1237 34.8554 43.1237 35.0488L43.1235 35.0672C43.1326 35.0986 43.1414 35.1294 43.1499 35.1603C43.4707 36.324 43.5507 37.541 43.385 38.7368C43.3564 38.9435 43.3178 39.1498 43.2519 39.5026L43.2475 39.526L43.2354 39.5908C43.1389 40.1082 43.075 40.4505 42.9763 40.7534C42.3944 42.5404 40.837 43.8338 38.9735 44.0777C38.6576 44.119 38.3094 44.119 37.7831 44.1189L37.7172 44.1189H26.8768L26.8109 44.1189C26.2846 44.119 25.9364 44.119 25.6205 44.0777C23.757 43.8338 22.1996 42.5404 21.6177 40.7534C21.519 40.4505 21.4551 40.1082 21.3586 39.5908L21.3465 39.526L21.3421 39.5027L21.3421 39.5027L21.3421 39.5027C21.2762 39.1498 21.2376 38.9436 21.209 38.7368C21.0433 37.541 21.1233 36.324 21.4441 35.1603C21.4529 35.1283 21.462 35.0964 21.4714 35.0639L21.4713 35.0488C21.4713 34.8565 21.5333 34.6787 21.6384 34.5343L21.6763 34.4184L21.6763 34.4184L21.6837 34.3958L22.9542 30.5095L22.9689 30.4645C23.1738 29.8379 23.35 29.2986 23.5455 28.8726C23.755 28.4158 24.021 28.0079 24.4498 27.6969C24.8786 27.386 25.349 27.2599 25.8482 27.2027C26.3139 27.1493 26.8812 27.1494 27.5405 27.1494H27.5405ZM22.9424 38.4966C22.8235 37.6384 22.8622 36.7665 23.0558 35.9238H25.504C26.0286 35.9238 26.3643 35.9246 26.6244 35.9482C26.867 35.9702 26.9805 36.0078 27.0613 36.0496C27.0705 36.0544 27.0797 36.0593 27.0887 36.0643C27.1684 36.1084 27.2626 36.1819 27.4155 36.3716C27.5794 36.5749 27.7663 36.8538 28.0573 37.2902L28.0772 37.3201L28.0772 37.3202L28.0772 37.3202C28.3426 37.7182 28.5731 38.064 28.7926 38.3364C29.0285 38.6291 29.2885 38.8852 29.6349 39.0768C29.6581 39.0896 29.6815 39.1021 29.7051 39.1143C30.0566 39.2963 30.4139 39.3705 30.7883 39.4044C31.1367 39.436 31.5523 39.436 32.0307 39.436H32.0666H32.5284H32.5644C33.0427 39.436 33.4583 39.436 33.8067 39.4044C34.1812 39.3705 34.5384 39.2963 34.89 39.1143C34.9135 39.1021 34.937 39.0896 34.9602 39.0768C35.3066 38.8852 35.5665 38.6291 35.8024 38.3364C36.022 38.064 36.2525 37.7182 36.5178 37.3201L36.5378 37.2902C36.8287 36.8538 37.0157 36.5749 37.1795 36.3716C37.3324 36.1819 37.4267 36.1084 37.5063 36.0643C37.5154 36.0593 37.5245 36.0544 37.5338 36.0496C37.6146 36.0078 37.728 35.9702 37.9707 35.9482C38.2307 35.9246 38.5665 35.9238 39.091 35.9238H41.5382C41.7318 36.7665 41.7705 37.6384 41.6516 38.4966C41.6292 38.6578 41.5988 38.822 41.5273 39.2046C41.4142 39.8098 41.371 40.0313 41.3123 40.2115C40.9393 41.3571 39.941 42.1861 38.7464 42.3425C38.5584 42.3671 38.3328 42.3689 37.7172 42.3689H26.8768C26.2612 42.3689 26.0356 42.3671 25.8476 42.3425C24.653 42.1861 23.6547 41.3571 23.2817 40.2115C23.223 40.0313 23.1797 39.8098 23.0667 39.2046C22.9952 38.822 22.9648 38.6578 22.9424 38.4966Z" fill="url(#paint0_linear)"/>
<defs>
<linearGradient id="paint0_linear" x1="32.297" y1="20.125" x2="32.297" y2="44.1189" gradientUnits="userSpaceOnUse">
<stop stop-color="#0F84FE"/>
<stop offset="1" stop-color="#45A0FF"/>
</linearGradient>
</defs>
</svg>
