<svg width="64" height="64" viewBox="0 0 64 64" fill="none" xmlns="http://www.w3.org/2000/svg">
<rect width="64" height="64" rx="32" fill="#FFF7F8"/>
<path fill-rule="evenodd" clip-rule="evenodd" d="M42.0557 23.7714V31.4182C44.6395 32.313 46.5 34.7707 46.5 37.6552C46.5 41.2935 43.5401 44.2534 39.9018 44.2534C37.7217 44.2534 35.7856 43.1904 34.5835 41.5557H24.2714C23.2947 41.5557 22.5 40.7612 22.5 39.7843V23.7714C22.5 22.7947 23.2947 22 24.2714 22H40.2843C41.261 22 42.0557 22.7947 42.0557 23.7714ZM34.0173 23.442H30.5383V27.4221L32.0103 26.834C32.1821 26.7655 32.3736 26.7655 32.5453 26.834L34.0173 27.4221V23.442ZM23.942 39.7843C23.942 39.9659 24.0897 40.1137 24.2714 40.1137H33.7789C33.4726 39.3535 33.3036 38.5238 33.3036 37.6552C33.3036 34.0168 36.2635 31.0569 39.9018 31.0569C40.1424 31.0569 40.3799 31.0701 40.6137 31.0954V23.7714C40.6137 23.5897 40.4659 23.442 40.2843 23.442H35.4593V28.4867C35.4593 28.7258 35.3406 28.9494 35.1427 29.0836C35.0215 29.1655 34.8803 29.2076 34.7382 29.2076C34.6479 29.2076 34.5571 29.1906 34.4709 29.1561L32.2778 28.28L30.085 29.1561C29.8629 29.2449 29.6113 29.2177 29.4131 29.0836C29.2152 28.9494 29.0966 28.7258 29.0966 28.4867V23.442H24.2714C24.0897 23.442 23.942 23.5897 23.942 23.7714V39.7843ZM34.7455 37.6552C34.7455 40.4982 37.0585 42.8114 39.9018 42.8114C42.7449 42.8114 45.058 40.4982 45.058 37.6552C45.058 34.8119 42.7449 32.4989 39.9018 32.4989C37.0585 32.4989 34.7455 34.8119 34.7455 37.6552ZM40.5747 36.9822H42.527C42.9252 36.9822 43.248 37.3051 43.248 37.7033C43.248 38.1014 42.9252 38.4242 42.527 38.4242H39.8536C39.4556 38.4242 39.1328 38.1014 39.1328 37.7033V35.03C39.1328 34.6317 39.4556 34.3089 39.8536 34.3089C40.2519 34.3089 40.5747 34.6317 40.5747 35.03V36.9822Z" fill="black"/>
<path fill-rule="evenodd" clip-rule="evenodd" d="M42.0557 23.7714V31.4182C44.6395 32.313 46.5 34.7707 46.5 37.6552C46.5 41.2935 43.5401 44.2534 39.9018 44.2534C37.7217 44.2534 35.7856 43.1904 34.5835 41.5557H24.2714C23.2947 41.5557 22.5 40.7612 22.5 39.7843V23.7714C22.5 22.7947 23.2947 22 24.2714 22H40.2843C41.261 22 42.0557 22.7947 42.0557 23.7714ZM34.0173 23.442H30.5383V27.4221L32.0103 26.834C32.1821 26.7655 32.3736 26.7655 32.5453 26.834L34.0173 27.4221V23.442ZM23.942 39.7843C23.942 39.9659 24.0897 40.1137 24.2714 40.1137H33.7789C33.4726 39.3535 33.3036 38.5238 33.3036 37.6552C33.3036 34.0168 36.2635 31.0569 39.9018 31.0569C40.1424 31.0569 40.3799 31.0701 40.6137 31.0954V23.7714C40.6137 23.5897 40.4659 23.442 40.2843 23.442H35.4593V28.4867C35.4593 28.7258 35.3406 28.9494 35.1427 29.0836C35.0215 29.1655 34.8803 29.2076 34.7382 29.2076C34.6479 29.2076 34.5571 29.1906 34.4709 29.1561L32.2778 28.28L30.085 29.1561C29.8629 29.2449 29.6113 29.2177 29.4131 29.0836C29.2152 28.9494 29.0966 28.7258 29.0966 28.4867V23.442H24.2714C24.0897 23.442 23.942 23.5897 23.942 23.7714V39.7843ZM34.7455 37.6552C34.7455 40.4982 37.0585 42.8114 39.9018 42.8114C42.7449 42.8114 45.058 40.4982 45.058 37.6552C45.058 34.8119 42.7449 32.4989 39.9018 32.4989C37.0585 32.4989 34.7455 34.8119 34.7455 37.6552ZM40.5747 36.9822H42.527C42.9252 36.9822 43.248 37.3051 43.248 37.7033C43.248 38.1014 42.9252 38.4242 42.527 38.4242H39.8536C39.4556 38.4242 39.1328 38.1014 39.1328 37.7033V35.03C39.1328 34.6317 39.4556 34.3089 39.8536 34.3089C40.2519 34.3089 40.5747 34.6317 40.5747 35.03V36.9822Z" fill="url(#paint0_linear)"/>
<defs>
<linearGradient id="paint0_linear" x1="34.5" y1="22" x2="34.5" y2="44.2534" gradientUnits="userSpaceOnUse">
<stop stop-color="#FE425E"/>
<stop offset="1" stop-color="#FF7186"/>
</linearGradient>
</defs>
</svg>
